<svg width="22" height="23" viewBox="0 0 22 23" fill="none" xmlns="http://www.w3.org/2000/svg">
<path d="M5.545 11.999H16.455M11.003 6.543V17.453M1 15.448C1 18.297 1.698 19.453 2.606 20.392C3.546 21.301 4.704 22 7.552 22H14.448C17.296 22 18.454 21.3 19.394 20.392C20.302 19.453 21 18.298 21 15.448V8.55C21 5.701 20.302 4.544 19.394 3.605C18.454 2.698 17.296 1.998 14.448 1.998H7.552C4.704 1.998 3.546 2.697 2.606 3.605C1.698 4.545 1 5.701 1 8.55V15.448Z" stroke="white" stroke-width="2" stroke-linecap="round" stroke-linejoin="round"/>
</svg>
